<svg width="280" height="280" viewBox="0 0 280 280" fill="none" xmlns="http://www.w3.org/2000/svg">
<path d="M140 43C193.572 43 237 86.4284 237 140C237 193.572 193.572 237 140 237C86.4284 237 43 193.572 43 140C43 86.4284 86.4284 43 140 43Z" fill="white" stroke="white" stroke-width="14"/>
<path fill-rule="evenodd" clip-rule="evenodd" d="M140.074 50C90.2656 50 50 90.5623 50 140.743C50 180.856 75.7996 214.81 111.59 226.828C116.065 227.731 117.704 224.875 117.704 222.473C117.704 220.369 117.557 213.158 117.557 205.645C92.5002 211.055 87.2824 194.828 87.2824 194.828C83.2557 184.311 77.2893 181.608 77.2893 181.608C69.0883 176.049 77.8867 176.049 77.8867 176.049C86.9837 176.65 91.7572 185.364 91.7572 185.364C99.8089 199.185 112.783 195.28 118.003 192.875C118.748 187.016 121.135 182.96 123.671 180.707C103.686 178.603 82.6602 170.791 82.6602 135.935C82.6602 126.019 86.237 117.907 91.9047 111.598C91.0105 109.345 87.878 100.028 92.8008 87.5589C92.8008 87.5589 100.406 85.1546 117.555 96.8735C124.897 94.8871 132.469 93.8767 140.074 93.8682C147.68 93.8682 155.433 94.9209 162.592 96.8735C179.743 85.1546 187.348 87.5589 187.348 87.5589C192.271 100.028 189.137 109.345 188.242 111.598C194.059 117.907 197.489 126.019 197.489 135.935C197.489 170.791 176.463 178.452 156.329 180.707C159.611 183.561 162.443 188.968 162.443 197.533C162.443 209.701 162.295 219.468 162.295 222.471C162.295 224.875 163.936 227.731 168.409 226.83C204.2 214.808 230 180.856 230 140.743C230.147 90.5623 189.734 50 140.074 50Z" fill="#24292F"/>
</svg>
