<svg width="380" height="180" viewBox="0 0 380 180" fill="none" xmlns="http://www.w3.org/2000/svg">
<path d="M87.2108 166.991C83.2018 171.003 76.7019 171.003 72.6929 166.991L3.00676 97.2633C-1.00225 93.2519 -1.00225 86.7481 3.00676 82.7366L50.916 34.7986L69.1273 53.0209C67.5049 57.3986 68.4514 62.5133 71.967 66.031C73.0342 67.0989 74.2486 67.9299 75.5448 68.524V112.929C74.2486 113.523 73.0342 114.354 71.967 115.422C67.1561 120.235 67.1561 128.04 71.967 132.854C76.7778 137.667 84.5777 137.667 89.3885 132.854C94.1993 128.04 94.1993 120.235 89.3885 115.422C88.3212 114.354 87.1068 113.523 85.8106 112.929V69.7143L102.519 86.4323C100.896 90.81 101.843 95.9247 105.358 99.4424C110.169 104.256 117.969 104.256 122.78 99.4424C127.591 94.6286 127.591 86.8241 122.78 82.0103C119.264 78.4927 114.153 77.5456 109.778 79.169L92.2281 61.609C93.8506 57.2313 92.904 52.1166 89.3885 48.5989C85.873 45.0813 80.7613 44.1342 76.3863 45.7576L58.1749 27.5353L72.6929 13.0086C76.7019 8.99714 83.2018 8.99714 87.2108 13.0086L156.897 82.7367C160.906 86.7481 160.906 93.2519 156.897 97.2634L87.2108 166.991Z" fill="#F03C2E"/>
<path d="M227.688 65.3297C219.358 65.3297 213.151 69.4263 213.151 79.2777C213.151 86.6994 217.237 91.8567 227.239 91.8567C235.718 91.8567 241.478 86.8631 241.478 78.9712C241.478 70.0307 236.323 65.3297 227.688 65.3297ZM211.029 134.913C209.057 137.334 207.092 139.912 207.092 142.946C207.092 149.007 214.81 150.826 225.416 150.826C234.208 150.826 246.176 150.213 246.176 142.042C246.176 137.177 240.418 136.878 233.141 136.421L211.029 134.913ZM255.872 65.7861C258.592 69.2765 261.477 74.1273 261.477 81.1013C261.477 97.9198 248.298 107.778 229.211 107.778C224.356 107.778 219.964 107.172 217.237 106.411L212.241 114.446L227.082 115.351C253.295 117.023 268.744 117.786 268.744 137.938C268.744 155.37 253.445 165.223 227.082 165.223C199.666 165.223 189.209 158.249 189.209 146.273C189.209 139.45 192.242 135.822 197.546 130.809C192.541 128.7 190.882 124.91 190.882 120.813C190.882 117.48 192.541 114.446 195.274 111.561C198 108.684 201.027 105.805 204.665 102.471C197.246 98.8307 191.636 90.9458 191.636 79.7271C191.636 62.2956 203.147 50.3262 226.328 50.3262C232.842 50.3262 236.779 50.9254 240.268 51.845H269.811V64.7236L255.873 65.7861M296.46 38.2366C287.824 38.2366 282.827 33.2378 282.827 24.5882C282.827 15.9543 287.824 11.2533 296.46 11.2533C305.25 11.2533 310.25 15.956 310.25 24.5882C310.25 33.236 305.252 38.2366 296.46 38.2366ZM276.917 129.339V117.363L284.642 116.308C286.764 116.003 287.069 115.546 287.069 113.266V68.7035C287.069 67.0436 286.614 65.9759 285.098 65.5265L276.917 62.6422L278.583 50.368H309.943V113.27C309.943 115.707 310.093 116.004 312.372 116.311L320.095 117.367V129.341L276.917 129.339ZM380 123.459C373.486 126.638 363.945 129.522 355.305 129.522C337.278 129.522 330.465 122.25 330.465 105.112V65.4046C330.465 64.4919 330.465 63.8875 329.246 63.8875H318.64V50.3959C331.981 48.8788 337.278 42.2044 338.944 25.6838H353.339V47.2119C353.339 48.2727 353.339 48.7273 354.549 48.7273H375.908V63.8875H353.339V100.111C353.339 109.057 355.459 112.54 363.641 112.54C367.883 112.54 372.275 111.479 375.908 110.119L380 123.459Z" fill="#F03C2E"/>
</svg>
